<?xml version="1.0" standalone="no"?>
<!DOCTYPE svg PUBLIC "-//W3C//DTD SVG 20010904//EN"
 "http://www.w3.org/TR/2001/REC-SVG-20010904/DTD/svg10.dtd">
<svg version="1.0" xmlns="http://www.w3.org/2000/svg"
 width="230.000000pt" height="230.000000pt" viewBox="0 0 230.000000 230.000000"
 preserveAspectRatio="xMidYMid meet">
<metadata>
Created by potrace 1.14, written by Peter Selinger 2001-2017
</metadata>
<g transform="translate(0.000000,230.000000) scale(0.100000,-0.100000)"
fill="#000000" stroke="none">
<path d="M930 1909 c-52 -13 -72 -17 -99 -23 -35 -8 -181 -79 -181 -88 0 -5
-6 -8 -13 -8 -21 0 -155 -132 -202 -199 -93 -134 -142 -307 -132 -465 6 -89
10 -118 22 -156 3 -10 8 -28 10 -40 6 -30 76 -174 87 -178 4 -2 8 -9 8 -14 0
-6 7 -18 15 -27 8 -9 36 -40 62 -69 87 -98 223 -180 364 -218 90 -25 280 -25
374 0 73 19 198 73 203 88 2 4 10 8 18 8 8 0 14 4 14 9 0 5 8 12 18 15 10 3
47 34 82 68 36 35 67 63 70 63 98 16 152 37 220 86 139 100 213 254 205 429
-2 43 -6 84 -10 90 -3 5 -9 23 -11 37 -3 15 -11 31 -17 35 -7 4 -7 8 -2 8 7 0
7 3 0 8 -5 4 -19 24 -29 45 -24 47 -88 114 -147 154 -45 31 -152 73 -186 73
-10 0 -47 27 -83 61 -89 83 -187 142 -300 180 -82 28 -111 32 -210 34 -63 1
-131 -1 -150 -6z"/>
</g>
</svg>
